<?xml version="1.0" encoding="UTF-8" standalone="no"?>
<!DOCTYPE svg PUBLIC "-//W3C//DTD SVG 1.1//EN" "http://www.w3.org/Graphics/SVG/1.1/DTD/svg11.dtd">
<svg width="100%" height="100%" viewBox="0 0 448 512" version="1.1" xmlns="http://www.w3.org/2000/svg" xmlns:xlink="http://www.w3.org/1999/xlink" xml:space="preserve" xmlns:serif="http://www.serif.com/" style="fill-rule:evenodd;clip-rule:evenodd;stroke-linejoin:round;stroke-miterlimit:2;">
    <path d="M349.4,44.6C355.3,30.9 350.9,14.9 338.8,6.1C326.7,-2.7 310.2,-1.9 298.9,7.9L42.9,231.9C32.9,240.7 29.3,254.8 34,267.2C38.7,279.6 50.7,288 64,288L175.5,288L98.6,467.4C92.7,481.1 97.1,497.1 109.2,505.9C121.3,514.7 137.8,513.9 149.1,504.1L405.1,280.1C415.1,271.3 418.7,257.2 414,244.8C409.3,232.4 397.4,224.1 384,224.1L272.5,224.1L349.4,44.6Z" style="fill:white;fill-rule:nonzero;"/>
</svg>
