<?xml version="1.0" encoding="UTF-8" standalone="no"?>
<!DOCTYPE svg PUBLIC "-//W3C//DTD SVG 1.1//EN" "http://www.w3.org/Graphics/SVG/1.1/DTD/svg11.dtd">
<svg width="100%" height="100%" viewBox="0 0 512 512" version="1.1" xmlns="http://www.w3.org/2000/svg" xmlns:xlink="http://www.w3.org/1999/xlink" xml:space="preserve" xmlns:serif="http://www.serif.com/" style="fill-rule:evenodd;clip-rule:evenodd;stroke-linejoin:round;stroke-miterlimit:2;">
    <path d="M0,256C-0,115.563 115.563,0 256,0C396.437,-0 512,115.563 512,256C512,396.437 396.437,512 256,512C115.563,512 0,396.437 0,256ZM288,96C288,78.445 273.555,64 256,64C238.445,64 224,78.445 224,96C224,113.555 238.445,128 256,128C273.555,128 288,113.555 288,96ZM256,416C291.3,416 320,387.3 320,352C320,334.6 313.1,318.9 301.9,307.4L366,161.7C371.3,149.6 365.8,135.4 353.7,130.1C341.6,124.8 327.4,130.3 322.1,142.4L257.9,288L256,288C220.7,288 192,316.7 192,352C192,387.3 220.7,416 256,416ZM176,144C176,126.445 161.555,112 144,112C126.445,112 112,126.445 112,144C112,161.555 126.445,176 144,176C161.555,176 176,161.555 176,144ZM96,288C113.555,288 128,273.555 128,256C128,238.445 113.555,224 96,224C78.445,224 64,238.445 64,256C64,273.555 78.445,288 96,288ZM448,256C448,238.445 433.555,224 416,224C398.445,224 384,238.445 384,256C384,273.555 398.445,288 416,288C433.555,288 448,273.555 448,256Z" style="fill:white;fill-rule:nonzero;"/>
</svg>
