<?xml version="1.0" encoding="UTF-8" standalone="no"?>
<!DOCTYPE svg PUBLIC "-//W3C//DTD SVG 1.1//EN" "http://www.w3.org/Graphics/SVG/1.1/DTD/svg11.dtd">
<svg width="100%" height="100%" viewBox="0 0 576 512" version="1.1" xmlns="http://www.w3.org/2000/svg" xmlns:xlink="http://www.w3.org/1999/xlink" xml:space="preserve" xmlns:serif="http://www.serif.com/" style="fill-rule:evenodd;clip-rule:evenodd;stroke-linejoin:round;stroke-miterlimit:2;">
    <path d="M64,64C28.7,64 0,92.7 0,128L0,135.4C0,142.2 4.4,148 10.1,151.7C23.3,160.3 32,175.1 32,192C32,208.9 23.3,223.7 10.1,232.3C4.4,236 0,241.8 0,248.6L0,320L576,320L576,248.6C576,241.8 571.6,236 565.9,232.3C552.7,223.7 544,208.9 544,192C544,175.1 552.7,160.3 565.9,151.7C571.6,148 576,142.2 576,135.4L576,128C576,92.7 547.3,64 512,64L64,64ZM576,352L0,352L0,416C0,433.7 14.3,448 32,448L80,448L80,416C80,407.2 87.2,400 96,400C104.8,400 112,407.2 112,416L112,448L208,448L208,416C208,407.2 215.2,400 224,400C232.8,400 240,407.2 240,416L240,448L336,448L336,416C336,407.2 343.2,400 352,400C360.8,400 368,407.2 368,416L368,448L464,448L464,416C464,407.2 471.2,400 480,400C488.8,400 496,407.2 496,416L496,448L544,448C561.7,448 576,433.7 576,416L576,352ZM192,160L192,224C192,241.7 177.7,256 160,256C142.3,256 128,241.7 128,224L128,160C128,142.3 142.3,128 160,128C177.7,128 192,142.3 192,160ZM320,160L320,224C320,241.7 305.7,256 288,256C270.3,256 256,241.7 256,224L256,160C256,142.3 270.3,128 288,128C305.7,128 320,142.3 320,160ZM448,160L448,224C448,241.7 433.7,256 416,256C398.3,256 384,241.7 384,224L384,160C384,142.3 398.3,128 416,128C433.7,128 448,142.3 448,160Z" style="fill:white;fill-rule:nonzero;"/>
</svg>
