<?xml version="1.0" encoding="UTF-8" standalone="no"?>
<!DOCTYPE svg PUBLIC "-//W3C//DTD SVG 1.1//EN" "http://www.w3.org/Graphics/SVG/1.1/DTD/svg11.dtd">
<svg width="100%" height="100%" viewBox="0 0 320 512" version="1.1" xmlns="http://www.w3.org/2000/svg" xmlns:xlink="http://www.w3.org/1999/xlink" xml:space="preserve" xmlns:serif="http://www.serif.com/" style="fill-rule:evenodd;clip-rule:evenodd;stroke-linejoin:round;stroke-miterlimit:2;">
    <path d="M160,64C133.5,64 112,85.5 112,112L112,276.5C112,293.8 104.9,308.4 96.7,319C86.2,332.6 80,349.5 80,368C80,412.2 115.8,448 160,448C204.2,448 240,412.2 240,368C240,349.5 233.8,332.6 223.3,319.1C215.1,308.5 208,293.9 208,276.6L208,112C208,85.5 186.5,64 160,64ZM48,112C48,50.2 98.1,0 160,0C221.9,0 272,50.1 272,112L272,276.4C272,276.5 272.1,276.7 272.2,277C272.4,277.6 273,278.6 273.9,279.8C292.8,304.2 304,334.8 304,367.9C304,447.4 239.5,511.9 160,511.9C80.5,511.9 16,447.5 16,368C16,334.8 27.2,304.2 46.1,279.9C47,278.7 47.6,277.7 47.8,277.1C47.9,276.8 48,276.6 48,276.5L48,112ZM208,368C208,394.5 186.5,416 160,416C133.5,416 112,394.5 112,368C112,347.1 125.4,329.3 144,322.7L144,144C144,135.2 151.2,128 160,128C168.8,128 176,135.2 176,144L176,322.7C194.6,329.3 208,347.1 208,368Z" style="fill:white;fill-rule:nonzero;"/>
</svg>
